# xmcd
#
# Track frame offsets: 
#        150
#        21870
#        45887
#        68732
#        87325
#        108025
#        127900
#        149022
#        173810
#        196635
#
# Disc length: 2922 seconds
#
# Revision: 0
# Processed by: cddbd v1.5.2PL0 Copyright (c) Steve Scherf et al.
# Submitted via: ExactAudioCopy v1.0b3
#
DISCID=780b680a
DTITLE=Tu Quy - Ru Em Tron Giac Ngu
DYEAR=1993
DGENRE=
TTITLE0=Phuong Mai - Hai hoa rung cho em
TTITLE1=Thanh Tuyen - Hai mua mua
TTITLE2=Thien Trang - Tieng hai dem
TTITLE3=Giao Linh - Nhung loi nay cho anh
TTITLE4=Phuong Mai - Nghen ngao
TTITLE5=Thien Trang - Mot minh thoi
TTITLE6=Thanh Tuyen - Tinh doi
TTITLE7=Phuong Mai - Han Mac Tu
TTITLE8=Giao Linh - Kho tam
TTITLE9=Thien Trang - Ru em tron giac ngu
EXTD=
EXTT0=
EXTT1=
EXTT2=
EXTT3=
EXTT4=
EXTT5=
EXTT6=
EXTT7=
EXTT8=
EXTT9=
PLAYORDER=
